<svg xmlns="http://www.w3.org/2000/svg" viewBox="0 0 540 420" role="img" aria-label="Redkey stacked logo">
  <title>Redkey stacked logo</title>
  <g transform="translate(0 0) scale(1)"><g transform="translate(170 15) scale(1)">
<path d="M100 8 178 53v94l-78 45-78-45V53Z" fill="none" stroke="#326CE5" stroke-width="10" stroke-linejoin="round"/>
<path d="M94 70h12v40h20v11h-20v3h20v11h-20v15a6 6 0 0 1-12 0Z" fill="#E5392D"/>
<path d="M100 32a23 23 0 1 1 0 46 23 23 0 1 1 0-46Zm0 15a8 8 0 1 0 0 16 8 8 0 1 0 0-16Z" fill="#E5392D" fill-rule="evenodd"/>
</g>
<path d="M92.3440625 321.476H112.2960625C119.8360625 321.476 123.0840625 324.492 123.0840625 331.452V334.932C122.9680625 337.136 122.9680625 339.224 122.9680625 340.5C122.9680625 348.504 123.4320625 350.94 125.5200625 355.0H144.1960625V351.868C141.5280625 350.36 140.4840625 348.62 140.4840625 344.908C140.0200625 319.968 139.5560625 318.808 128.7680625 314.168C138.28006249999999 310.456 143.0360625 303.61199999999997 143.0360625 293.288C143.0360625 286.56 140.71606250000002 280.412 136.65606250000002 276.236C132.8280625 272.29200000000003 127.4920625 270.436 120.3000625 270.436H74.9440625V355.0H92.3440625ZM92.3440625 306.976V284.936H113.3400625C118.3280625 284.936 120.3000625 285.4 122.5040625 287.14C124.5920625 288.88 125.63606250000001 291.78 125.63606250000001 295.724C125.63606250000001 299.784 124.5920625 303.032 122.5040625 304.772C120.5320625 306.396 118.3280625 306.976 113.3400625 306.976Z" fill="#E5392D"/>
<path d="M210.1980625 328.784C210.3140625 327.392 210.3140625 326.812 210.3140625 326.0C210.3140625 319.736 209.3860625 313.936 207.8780625 309.528C203.7020625 298.15999999999997 193.6100625 291.316 180.9660625 291.316C162.9860625 291.316 151.9660625 304.308 151.9660625 325.304C151.9660625 345.372 162.8700625 357.668 180.6180625 357.668C194.6540625 357.668 206.0220625 349.78 209.6180625 337.368H193.6100625C191.6380625 342.356 187.1140625 345.256 181.1980625 345.256C176.5580625 345.256 172.84606250000002 343.284 170.5260625 339.804C169.0180625 337.484 168.4380625 334.7 168.2060625 328.784ZM168.4380625 317.996C169.4820625 308.368 173.5420625 303.728 180.7340625 303.728C188.1580625 303.728 192.5660625 308.716 193.3780625 317.996Z" fill="#E5392D"/>
<path d="M260.8940625 355.0H277.1340625V270.436H260.8940625V300.48C256.8340625 294.216 251.4980625 291.316 243.6100625 291.316C228.6460625 291.316 217.2780625 305.7 217.2780625 324.608C217.2780625 333.076 219.8300625 341.66 224.0060625 347.692C228.29806250000001 353.84 235.9540625 357.668 243.6100625 357.668C251.4980625 357.668 256.8340625 354.884 260.8940625 348.62ZM247.2060625 304.888C255.4420625 304.888 260.8940625 312.776 260.8940625 324.84C260.8940625 336.20799999999997 255.3260625 344.096 247.2060625 344.096C239.0860625 344.096 233.5180625 336.092 233.5180625 324.608C233.5180625 312.892 239.0860625 304.888 247.2060625 304.888Z" fill="#E5392D"/>
<path d="M303.8130625 316.72V270.436H287.5730625V355.0H303.8130625V334.468L310.3090625 327.392L325.2730625 355.0H344.2970625L321.4450625 316.024L342.7890625 292.36H324.3450625Z" fill="#326CE5"/>
<path d="M406.0130625 328.784C406.12906250000003 327.392 406.12906250000003 326.812 406.12906250000003 326.0C406.12906250000003 319.736 405.2010625 313.936 403.6930625 309.528C399.5170625 298.15999999999997 389.4250625 291.316 376.7810625 291.316C358.8010625 291.316 347.7810625 304.308 347.7810625 325.304C347.7810625 345.372 358.6850625 357.668 376.4330625 357.668C390.4690625 357.668 401.8370625 349.78 405.4330625 337.368H389.4250625C387.4530625 342.356 382.9290625 345.256 377.0130625 345.256C372.3730625 345.256 368.6610625 343.284 366.3410625 339.804C364.8330625 337.484 364.2530625 334.7 364.02106249999997 328.784ZM364.2530625 317.996C365.2970625 308.368 369.3570625 303.728 376.5490625 303.728C383.97306249999997 303.728 388.3810625 308.716 389.1930625 317.996Z" fill="#326CE5"/>
<path d="M453.5736875 292.36 440.5816875 337.948 426.7776875 292.36H408.9136875L432.2296875 357.552C432.2296875 364.048 428.1696875 368.456 422.13768749999997 368.456C420.8616875 368.456 419.8176875 368.224 417.8456875 367.76V379.94C420.2816875 380.288 421.67368749999997 380.404 423.6456875 380.404C427.8216875 380.404 432.4616875 379.592 435.3616875 378.432C439.8856875 376.576 441.8576875 374.024 444.5256875 366.484L470.2776875 292.36Z" fill="#326CE5"/></g>
</svg>
